<svg id="accent" data-name="accent" xmlns="http://www.w3.org/2000/svg" viewBox="0 0 800 800"><defs><style>.cls-1{fill:#fff;}.cls-2{fill:#4a3f07;opacity:0.5;}.cls-3{fill:#a3402c;}</style></defs><title>1</title><rect class="cls-1" width="800" height="800"/><path class="cls-2" d="M0,651.42H800v-6H0ZM0,148.58v6H800v-6Z"/><path class="cls-3" d="M619.22,650.05H441.07l-9.29-28.81,18.4-6.43c17.77-4.93,29.56-11.31,35.06-18.95s8.32-22.17,8.32-43.05V404.47L312.85,574c2.47,14.41,6.38,24.37,11.64,29.61,5.49,5.5,14.24,9.79,26,12.73l.17,0,17.5,5.53-8.44,28.14h-179l-9.29-28.81,18.38-6.43c17.26-4.92,28.81-11.3,34.31-18.95s8.32-22.16,8.32-43.05V357.38c0-20.9-2.81-35.52-8.35-43.48s-17-14.36-34.28-19.3l-.17-.05-18.24-6.38,9.35-28h158.8l11.74,13.69L340.6,288.11c-11.55,16.07-19.85,32.78-24.62,49.62s-7.22,39.86-7.22,68.31V508L488.69,337.76c-2.48-13.93-6.41-23.79-11.68-29.29-5.51-5.75-14.55-10.42-26.84-13.86l-.18-.06-18.24-6.38,9.34-28H600l10.76,13.69L601,288c-11.62,16.17-19.92,32.88-24.69,49.72s-7.22,39.86-7.22,68.31V558.22c0,14,1.24,24.76,3.7,31.85,2.37,6.88,6,11.8,11.13,15,5.42,3.46,14.3,7.25,26.37,11.28l18.33,5.49Zm-173.78-6H614.9L621,625.86l-12.49-3.74c-12.8-4.27-21.86-8.16-27.78-11.94-6.22-3.94-10.8-10-13.59-18.16-2.7-7.82-4-18.88-4-33.8V406c0-29,2.51-52.54,7.45-70s13.56-34.84,25.56-51.53l7.21-10.49-6.24-7.93H445.42l-6.11,18.32,12.57,4.4c13.3,3.74,23.21,8.94,29.46,15.46,6.4,6.69,10.83,17.82,13.54,34l.26,1.58-192.38,182V406c0-29,2.51-52.54,7.45-70s13.56-34.84,25.56-51.53l7.86-10.48-6.81-7.94H185.1L179,284.46l12.58,4.4c18.83,5.39,31.09,12.47,37.47,21.61s9.43,24.45,9.43,46.91V552.81c0,22.48-3.1,37.71-9.45,46.55s-18.64,15.82-37.45,21.2L179,625l6.15,19.08H355.28l5.46-18.2L349,622.13c-12.81-3.21-22.47-8-28.73-14.29-6.44-6.42-10.88-17.7-13.58-34.47l-.25-1.57,1.16-1.09,192-180.09V552.81c0,22.48-3.09,37.7-9.45,46.55s-18.9,15.83-38.23,21.2L439.29,625Zm-47-434.3c-37.48,0-67.49-6.51-89.21-19.34-22.25-13.13-33.53-31.81-33.53-55.5,0-17.27,5.78-31.39,17.18-42h0c11.34-10.53,25.28-15.87,41.44-15.87a18.65,18.65,0,0,1,11.91,3.74,12.47,12.47,0,0,1,5,10.08c0,1.6-.75,4.43-6.18,14.2-3.59,6.47-5.41,15.47-5.41,26.74,0,12.07,4.08,21.43,12.47,28.62s24,10.86,46.33,10.86c20.87,0,36.39-3.57,46.13-10.63,9.56-6.92,14.21-15.86,14.21-27.31,0-11.81-1.72-21.23-5.09-28-5-10-5.73-12.89-5.73-14.47,0-5.16,2.3-13.82,17.68-13.82A55.71,55.71,0,0,1,505.19,93c11.13,10.6,16.77,24.71,16.77,42,0,23.7-11.42,42.37-33.93,55.51C466.05,203.24,435.91,209.75,398.46,209.75ZM297,97.33c-10.13,9.4-15.27,22-15.27,37.58,0,21.72,10,38.19,30.59,50.33,20.78,12.28,49.76,18.51,86.15,18.51S464,197.52,485,185.23c20.83-12.15,31-28.61,31-50.32,0-15.54-5-28.19-14.91-37.61a49.84,49.84,0,0,0-35.39-14.24C454,83.06,454,88.54,454,90.88c0,.29.4,2.41,5.09,11.79,3.8,7.62,5.73,18,5.73,30.69,0,13.33-5.62,24.15-16.69,32.17-10.78,7.81-27.49,11.77-49.65,11.77-24.15,0-40.58-4-50.24-12.3s-14.56-19.45-14.56-33.18c0-12.3,2.07-22.28,6.17-29.65,5-8.94,5.38-11,5.42-11.36a6.54,6.54,0,0,0-2.75-5.32,12.63,12.63,0,0,0-8.16-2.43c-14.59,0-27.16,4.8-37.35,14.27Z"/><path class="cls-3" d="M335.51,198.87S241.08,168.7,293.94,95.13c0,0,41.24-31.92,53.3-4.25,0,0-24.43,28.67-5.93,62.67s114.92,26.21,118.21-10.14S450,90.88,450,90.88s1.33-23.28,42.33-3.31,22.82,74.38,13,84C505.27,171.52,454.71,229.2,335.51,198.87Z"/></svg>