<svg id="terminal" data-name="terminal" xmlns="http://www.w3.org/2000/svg" viewBox="0 0 800 800"><defs><style>.cls-1{fill:#fff;}.cls-2{fill:#4a3f07;opacity:0.5;}.cls-3{fill:#a3402c;}</style></defs><title>10</title><rect class="cls-1" width="800" height="800"/><path class="cls-2" d="M0,645.42v6H800v-6ZM0,148.58v6H800v-6Z"/><path class="cls-3" d="M490.56,652.2l-1.49-2c-13.73-18-20.69-45.34-20.69-81.1a650.81,650.81,0,0,1,3.18-65.32c1.88-18.48,4.89-43.38,9-74.12-33.12,65.65-69.23,118.91-107.42,158.44-40.56,42-81.48,63.28-121.62,63.28-34.11,0-59.17-13.3-74.47-39.54-15-25.71-22.61-56.45-22.61-91.37,0-30.51,5.56-63.19,16.53-97.12a491.88,491.88,0,0,1,45.2-99.45,529.44,529.44,0,0,1,65.39-88.24c24.41-26.53,50.43-47.88,77.35-63.47,27.13-15.69,54.31-23.65,80.78-23.65,15.92,0,29.56,3,40.53,8.8a174.11,174.11,0,0,1,28.66,19.22l65.44-29.95-.56,5.25c-11.21,103.66-19,188.62-23.25,252.53S544.15,510.1,544.15,529a68.58,68.58,0,0,0,3.54,21.78c2.7,8.11,7.21,9,10.37,9,6.37,0,15-3.9,25.74-11.59,11.08-8,23.4-18.71,36.62-31.93l2.06-2.06,22.24,20.93-2,2.18c-20.49,22.61-45,44.62-72.84,65.4s-53.81,37.08-77.13,48.39Zm-50.9-497.62c-25.4,0-51.57,7.68-77.78,22.85-26.39,15.28-51.94,36.25-75.94,62.33A524.34,524.34,0,0,0,221.3,327a485.89,485.89,0,0,0-44.65,98.24c-10.78,33.33-16.24,65.39-16.24,95.27,0,33.84,7.33,63.56,21.79,88.35,14.35,24.6,37,36.56,69.29,36.56,38.45,0,77.92-20.67,117.3-61.45,39.76-41.14,77.28-97.44,111.52-167.32l.82-1.68h7.42l-.46,3.4c-4.89,36.31-8.44,65.27-10.56,86.06a644.59,644.59,0,0,0-3.15,64.71c0,33.11,6.06,58.48,18,75.49,22.4-11.1,47.25-26.8,73.91-46.71s50.17-40.88,70-62.45l-13.71-12.9c-12.67,12.52-24.54,22.78-35.3,30.51-11.91,8.56-21.48,12.72-29.24,12.72-5.33,0-12.44-2.28-16.06-13.15A74.4,74.4,0,0,1,538.15,529c0-19,2.13-61,6.35-124.94,4.14-62.9,11.78-146.16,22.7-247.53l-59.31,27.14-1.45-1.23a167,167,0,0,0-29.08-19.73C467.27,157.3,454.59,154.58,439.66,154.58ZM283.21,582.71c-20.19,0-34.61-8.57-42.87-25.47-7.92-16.17-11.93-38.49-11.93-66.33,0-31.19,5.56-64.92,16.52-100.26a478.5,478.5,0,0,1,44.68-101.06c18.74-31.85,40.48-58.25,64.61-78.47,24.39-20.46,50.65-30.83,78-30.83,17.66,0,31.18,4.56,40.18,13.56a66.28,66.28,0,0,1,17.72,32.64,163.79,163.79,0,0,1,4.3,36.08c0,24.83-4.67,52.17-13.88,81.25a466.42,466.42,0,0,1-37.24,85.65,553.9,553.9,0,0,1-51,76.53c-18.4,23-37.26,41.67-56.06,55.51C317.13,575.58,299.29,582.71,283.21,582.71ZM432.26,186.29c-25.94,0-50.9,9.9-74.18,29.43-23.61,19.77-44.9,45.66-63.3,76.92a472,472,0,0,0-44.12,99.79c-10.78,34.76-16.25,67.9-16.25,98.48,0,26.92,3.81,48.35,11.32,63.7,7.27,14.87,19.52,22.1,37.48,22.1,14.77,0,31.42-6.74,49.49-20,18.38-13.53,36.86-31.84,54.93-54.43a548.22,548.22,0,0,0,50.47-75.7A460.72,460.72,0,0,0,474.86,342c9-28.5,13.6-55.22,13.6-79.44a157.69,157.69,0,0,0-4.15-34.74A60.32,60.32,0,0,0,468.2,198.1C460.36,190.26,448.27,186.29,432.26,186.29Z"/><path class="cls-3" d="M542.06,449c-4.66,79-90.73,104-67.91,157.12,0,0,8.61,37,21.44,42.31l74.57-49.64,72.43-63.34-20-17-39.21,31.29s-27.25,24.75-36.75,6.5S542.69,438.34,542.06,449Z"/></svg>