<svg id="drop" data-name="drop" xmlns="http://www.w3.org/2000/svg" viewBox="0 0 800 800"><defs><style>.cls-1{fill:#fff;}.cls-2{fill:#4a3f07;opacity:0.5;}.cls-3{fill:#a3402c;}</style></defs><title>2</title><rect class="cls-1" width="800" height="800"/><path class="cls-2" d="M0,645.42v6H800v-6ZM0,148.58v6H800v-6Z"/><path class="cls-3" d="M570.08,529.44,568.55,532c-10.41,17.76-21.41,32.65-32.71,44.26S513.27,596,502,600.84c-11.44,4.88-21.45,8.2-29.76,9.85a139.07,139.07,0,0,1-27.2,2.51c-37.44,0-64.75-17.08-83.51-52.22s-28.36-89.12-28.36-160c0-44.11,3.59-82.78,10.67-114.93,7-31.88,19.36-58.23,36.7-78.3,17.06-19.76,39.08-29.78,65.44-29.78a89.19,89.19,0,0,1,40.21,9c12.09,6.05,20.68,11.74,25.55,16.89A101.18,101.18,0,0,1,523,218.16c-3.37-.32-5.82-.47-7.44-.47-16.7,0-30.57,6-41.23,17.8s-15.94,25.9-15.94,42.17c0,17.25,5.79,31.79,17.22,43.21s26.27,17.22,44.15,17.22c19.16,0,34.51-6.22,45.65-18.49s16.65-27.25,16.65-44.75c0-34.38-14.73-64.37-43.78-89.14s-65.78-37.13-109.58-37.13c-29.22,0-56.64,5.26-81.48,15.64s-46,24.35-62.85,41.52a255.15,255.15,0,0,0-43,59.07A278.07,278.07,0,0,0,215.66,333a311.85,311.85,0,0,0-8,69.78C207.65,485,225.92,547.68,262,589s91,62.43,163,62.43c36.06,0,68.41-8.91,96.17-26.49s51.53-44.19,70.83-79.19l1.41-2.55ZM425,645.42c-70.2,0-123.53-20.31-158.49-60.37s-52.84-101.5-52.84-182.25a305.81,305.81,0,0,1,7.86-68.44,272.12,272.12,0,0,1,25.17-66.74,249.35,249.35,0,0,1,42-57.67c16.29-16.6,36.78-30.13,60.89-40.2a203.72,203.72,0,0,1,52.68-14c17.47-2.23,37.17-3.14,54.42,1.2a116.37,116.37,0,0,1,26.57,9.94c3.78,2,7.77,4.5,10.35,8a10.45,10.45,0,0,1,2.12,4.81c.06.45-.41,5.24-.86,5q-2.82-1.53-5.94-3.09c-12.83-6.41-27.26-9.66-42.9-9.66-28.18,0-51.73,10.72-70,31.86-18,20.83-30.79,48.06-38,80.93-7.17,32.58-10.81,71.68-10.81,116.22,0,71.92,9.78,126.72,29.07,162.87,19.62,36.76,49.49,55.4,88.8,55.4a145.48,145.48,0,0,0,28.37-2.62c8.72-1.74,19.13-5.18,30.95-10.22,12-5.11,24-13.82,35.76-25.89,11.08-11.38,21.85-25.77,32.06-42.81l13.11,7.73C547.82,611.78,493.89,645.42,425,645.42Z"/></svg>