<svg id="leg" data-name="leg" xmlns="http://www.w3.org/2000/svg" viewBox="0 0 800 800"><defs><style>.cls-1{fill:#fff;}.cls-2{fill:#4a3f07;opacity:0.5;}.cls-3{fill:#a3402c;}</style></defs><title>3</title><rect class="cls-1" width="800" height="800"/><path class="cls-2" d="M0,651.42H800v-6H0ZM0,148.58v6H800v-6Z"/><path class="cls-3" d="M693.66,650.05H409.42V629.8L469,614.9V431.44H394.73l-44,137c-7.48,22.41-22.05,41.79-43.3,57.63s-47.8,23.95-78.8,23.95H106.34V629.91l50.33-15.1,39.26-117.76c10.85-32.6,39.92-56.65,86.4-71.47,16.22-4.64,34.85-7.79,55.57-9.43a299.61,299.61,0,0,1-80.47-15.68c-60.7-21.58-91.47-59-91.47-111.15,0-42,21-76.6,62.51-102.9,41-26,108-39.22,198.86-39.22H693.66v20.25L634,182.36V614.9l59.63,14.9Zm-278.24-6H687.66v-9.56L628,619.58V177.67l59.63-14.91V153.2H427.33c-89.76,0-155.58,12.88-195.65,38.29-39.62,25.13-59.72,58-59.72,97.83,0,49.37,29.42,84.86,87.44,105.48a293.37,293.37,0,0,0,88.49,15.73l2.94.06v10.75l-2.84.16c-24.2,1.31-45.71,4.62-63.93,9.82-44.46,14.18-72.22,36.94-82.44,67.62L161.38,619.67l-49,14.71v9.67H228.59c29.67,0,55-7.66,75.21-22.76S337.91,587.8,345,566.6l45.38-141.16H475V619.58l-59.62,14.91ZM475,406.59H427.33c-29.27,0-53.09-10.2-70.82-30.33S329.92,327,329.92,289.32s8.95-66.94,26.59-86.95S398.08,172,427.33,172H475ZM427.33,178c-27.45,0-49.77,9.52-66.32,28.3s-25.09,46.8-25.09,83,8.44,64.11,25.09,83,38.85,28.3,66.32,28.3H469V178Z"/><path class="cls-3" d="M317.31,423s29.25-3.25,33.52-12.41c0,0,36.6-1.71,39.53,14.85C393.64,444,372.4,488.9,363,518c-16.39,50.57-29.64,87.45-50.26,100-32.48,19.83-64.4,39-137.9,29H109.34v-14.9L159,617.24,190,524.44S204.27,428.62,317.31,423Z"/></svg>