<svg id="loop" data-name="loop" xmlns="http://www.w3.org/2000/svg" viewBox="0 0 800 800"><defs><style>.cls-1{fill:#fff;}.cls-2{fill:#4a3f07;opacity:0.5;}.cls-3{fill:#a3402c;}</style></defs><title>4</title><rect class="cls-1" width="800" height="800"/><path class="cls-2" d="M0,645.42v6H800v-6ZM0,148.58v6H800v-6Z"/><path class="cls-3" d="M531.42,193.6h0c-31.71-29.75-73.61-44.84-124.56-44.84-47.09,0-86.86,13.45-118.22,40s-49,62.39-52.26,106.37c-.4,4.68.59,8.35,2.94,10.9s5.9,3.83,10.58,3.83h92.83c9.16,0,14.64-5,15.43-14.16,1.83-13.9,7-25,15.37-33.1s18.88-12.08,31.42-12.08c16.44,0,29.77,6.38,40.77,19.51s16.52,31,16.52,53.1V348c0,1.54-.25,1.79-1.78,1.79H410.69c-57.8,0-104.28,12.42-138.15,36.94-34.16,24.74-51.49,66.77-51.49,124.93,0,55.63,14.42,94.6,42.84,115.82,28.15,21,61.12,31.71,98,31.71,43.46,0,77.08-13.56,99.9-40.3l.22-.29.21-.29a4.91,4.91,0,0,1,0,.55V637a14.44,14.44,0,0,0,14.49,14.49h88A14.44,14.44,0,0,0,579.27,637V311.6C579.27,263.12,563.17,223.42,531.42,193.6ZM462.24,495.36c0,20.66-7,36.95-20.92,48.42a74.78,74.78,0,0,1-48.82,17.5c-15.09,0-27.58-4.71-37.15-14S341,523.79,341,504.93c0-21.31,6.42-37.78,19.08-48.95s29.82-17,50.66-17h49.77c1.53,0,1.78.25,1.78,1.79ZM573.27,637a8.45,8.45,0,0,1-8.49,8.49h-88a8.45,8.45,0,0,1-8.49-8.49V618.83c0-4.09-2.23-5.83-3.6-6.53s-4.54-1.58-7.53,2.8c-.91,1.06-1.84,2.09-2.79,3.11a93.22,93.22,0,0,0,11-27.1c5.39-18.85,4.34-40.29,3.87-59.66-.74-30.23-1-60.41-1-90.64,0-4.88-2.91-7.79-7.78-7.79H410.69c-18.25,0-33.86,4.15-46.54,12.35,19.76-18.17,46.85-28.63,70.27-41.8,11.17-6.28,22.12-15,27.59-26.89,7.76-16.88,6.23-35.51,6.23-53.6,0-23.57-6-42.73-17.92-56.95-12-14.37-27.3-21.66-45.37-21.66-14.15,0-26.12,4.63-35.58,13.76s-15.17,21.4-17.17,36.71v.14c-.52,6.12-3.34,8.73-9.46,8.73H249.9c-2.94,0-5-.63-6.17-1.89s-1.62-3.4-1.37-6.37c3.11-42.35,20-76.75,50.15-102.25s68.72-38.54,114.35-38.54c49.37,0,89.9,14.54,120.46,43.22s45.95,66.86,45.95,113.62Z"/></svg>