<svg id="overhang" data-name="overhang" xmlns="http://www.w3.org/2000/svg" viewBox="0 0 800 800"><defs><style>.cls-1{fill:#fff;}.cls-2{fill:#4a3f07;opacity:0.5;}.cls-3{fill:#a3402c;}</style></defs><title>5</title><rect class="cls-1" width="800" height="800"/><path class="cls-2" d="M0,645.43v6H800v-6ZM0,148.58v6H800v-6Z"/><path class="cls-3" d="M518.48,663.5c-37.19,0-71.32-11.34-101.45-33.69h0c-30-22.26-54.12-53.14-71.68-91.77-17.16-37.74-26.48-80.4-27.73-126.83H255.25V608.93c0,5.19,1,8.82,2.95,10.76s5.58,3,10.78,3h51.78V651H80.59V622.65h51.79c5.51,0,9.32-1,11-2.85s2.71-5.7,2.71-10.87V190.77c0-7-1.42-9.93-2.62-11.12S139.41,177,132.38,177H80.59v-28.3H320.76V177H269c-5.17,0-8.93.94-10.88,2.71s-2.85,5.51-2.85,11V380.12h63.13c2.14-45,11.92-86.41,29.07-123,17.56-37.45,41.45-67.27,71-88.62A170.88,170.88,0,0,1,621.7,171c30.24,23,54.35,54.91,71.67,94.93s26,85,26,134-8.76,94-26,134-41.44,72-71.67,94.93A167,167,0,0,1,518.48,663.5ZM249.25,405.21h74.24l.06,2.94c.91,46.75,10.08,89.62,27.26,127.4S391.43,603.34,420.6,625h0c29.08,21.57,62,32.51,97.88,32.51A161.18,161.18,0,0,0,618.07,624c29.4-22.33,52.88-53.46,69.8-92.54S713.41,448,713.41,399.85s-8.6-92.4-25.54-131.57-40.4-70.2-69.8-92.54a164.87,164.87,0,0,0-196.1-2.4c-28.72,20.75-52,49.79-69.08,86.31s-26.82,78.24-28.64,123.59l-.12,2.88H249.25V190.77c0-7.45,1.58-12.51,4.82-15.46S262.1,171,269,171h45.78v-16.3H86.59V171h45.79c7.39,0,12.41,1.43,15.36,4.36s4.37,8,4.37,15.37V608.93c0,6.88-1.4,11.76-4.27,14.91s-8,4.81-15.46,4.81H86.59V645H314.76V628.65H269c-7,0-11.86-1.54-15-4.71s-4.71-8.06-4.71-15Zm269.23,236c-28,0-49-11.15-62.49-33.14-13.25-21.51-20-56.39-20-103.67V295.31c0-47.27,6.71-82.15,20-103.67,13.52-22,34.55-33.14,62.49-33.14s48.95,11.15,62.49,33.14c13.24,21.54,20,56.42,20,103.67V504.39c0,46.8-6.71,81.56-19.95,103.31h0C567.44,629.93,546.42,641.2,518.48,641.2Zm0-476.7c-26.08,0-44.85,9.9-57.38,30.28C448.45,215.34,442,249.17,442,295.31V504.39c0,46.15,6.41,80,19.07,100.53,12.52,20.37,31.29,30.28,57.38,30.28s44.83-10,57.37-30.62h0c12.66-20.8,19.08-54.51,19.08-100.19V295.31c0-46.13-6.42-79.95-19.07-100.53C563.31,174.41,544.54,164.5,518.48,164.5Z"/><path class="cls-3" d="M405.48,616.59s33.55-16.89,71,9.52c23,16.19,44.06,23,86.92-2.48s73.23-11.56,73.23-11.56-53,53.19-122.86,48.43C443.32,655.7,405.48,616.59,405.48,616.59Z"/></svg>