<svg id="serif" data-name="serif" xmlns="http://www.w3.org/2000/svg" viewBox="0 0 800 800"><defs><style>.cls-1{fill:#fff;}.cls-2{fill:#4a3f07;opacity:0.5;}.cls-3{fill:#a3402c;}</style></defs><title>6</title><rect class="cls-1" width="800" height="800"/><path class="cls-2" d="M0,645.42v6H800v-6ZM0,148.58v6H800v-6Z"/><path class="cls-3" d="M679,651.42H405.1V620.78l2.79-.19c19.46-1.34,29.86-8.45,31.81-21.74,2.07-14.15-1.51-33.45-10.64-57.37L341,306.05,242.37,541.57c-10.3,24-10.25,43,.14,56.41,10.55,13.62,28.88,21.23,54.5,22.61l2.84.15v30.68H121V621l2.58-.37c9.15-1.3,18.64-9.05,28.19-23,9.89-14.48,20-34.1,29.95-58.32l108-252.78c7.64-18.07,9.94-35.28,6.84-51.17s-10.26-29.11-21.26-39.43-24.45-15.78-40.2-16.47l-2.87-.13V148.58H460.13l.57,2.27A264.91,264.91,0,0,0,474,190.9c5.31,12.37,11,26.4,16.79,41.69l122,306.71h0c10,25,18.45,43.37,25.17,54.66,6.5,11,12.6,17.83,18.14,20.42a81.4,81.4,0,0,0,20.32,6.25l2.47.45Zm-267.87-6H673V626.06a85.15,85.15,0,0,1-19.35-6.25c-6.73-3.15-13.52-10.6-20.74-22.78-6.88-11.56-15.49-30.24-25.59-55.5h0l-122-306.75c-5.82-15.25-11.44-29.21-16.71-41.51a268.88,268.88,0,0,1-13.08-38.68H238.28v19a66.36,66.36,0,0,1,41.18,17.91c11.94,11.2,19.69,25.55,23,42.66s.91,35.47-7.21,54.67l-108,252.75c-10.13,24.57-20.4,44.56-30.53,59.38C147,615.18,137.06,623.6,127,626.05v19.37H293.85v-19c-26-1.89-44.83-10.21-56.08-24.74-11.83-15.24-12.14-36.25-.92-62.43l101.21-241.6h6.23l90.38,241.73c9.5,24.87,13.19,45.18,11,60.35-2.28,15.6-13.89,24.55-34.53,26.63Z"/><path class="cls-3" d="M124,648.42V623.58s15.82,2.59,37.8-36.28,42.73,20.64,104.23,33.39l29.79,2.83v24.9Z"/></svg>