<svg id="shoulder" data-name="shoulder" xmlns="http://www.w3.org/2000/svg" viewBox="0 0 800 800"><defs><style>.cls-1{fill:#fff;}.cls-2{fill:#4a3f07;opacity:0.5;}.cls-3{fill:#a3402c;}</style></defs><title>7</title><rect class="cls-1" width="800" height="800"/><path class="cls-2" d="M0,645.42v6H800v-6ZM0,148.58v6H800v-6Z"/><path class="cls-3" d="M493.34,651.5c-11.2,0-19.19-2.1-24.41-6.43-5.49-4.54-7.37-12.4-5.6-23.37L511.2,335.44c5.69-35.08,8.58-62.13,8.58-80.4,0-44.38-17.2-44.38-22.85-44.38-14.87,0-49.31,34-128.94,196-29.17,59.29-49.83,104.7-61.4,135-11.64,30.45-20.44,52.17-26.16,64.56-5.84,12.64-11.71,22.39-17.46,29-6.15,7-13.2,10.6-20.93,10.6-8.21,0-13.26-2.34-15-7-1.42-3.72-2.11-10-2.11-19.26,0-9,12.62-83.12,38.58-226.46,38.61-213.23,43.29-221.84,44.83-224.67,4.27-7.85,8.12-12.82,11.77-15.2s9.9-3.6,18.87-3.6c9.27,0,16.61,3.64,21.81,10.81,5.06,7,7.52,13.12,7.52,18.76a59.73,59.73,0,0,1-2,15.37c-2.25,8.66-5.65,19.53-10.12,32.29-15.2,43.38-30,105.7-43.91,185.24l-6.19,35.66c4.78-10.51,9.9-22.12,15.32-34.72,9.16-21.33,23-52.51,41.18-92.68s38.74-76.61,61.08-108.19c29.16-42.12,57.05-63.5,82.86-63.5,45.5,0,68.58,36.6,68.58,108.79,0,26.53-3.8,60.06-11.3,99.64s-15.89,83.3-24.9,129.73c-4.73,24.41-8.27,46-10.81,66.05-1.61,12.67-3.05,25.59-4.45,38.08-1.29,11.56-2.62,23.52-4.09,35.27-.15,1.07-.28,2.13-.41,3.2-.63,5.36-1.36,11.44-4.64,16.24C511.74,649.65,505,651.5,493.34,651.5Zm3.59-446.84c19.14,0,28.85,17,28.85,50.38,0,18.59-2.92,46-8.66,81.38L469.25,622.67c-1.41,8.71-.23,14.69,3.5,17.78,4.05,3.35,11,5,20.59,5,13,0,15.67-2.48,16.19-3.24,2.45-3.58,3.05-8.65,3.64-13.56.13-1.12.26-2.22.41-3.28,1.46-11.66,2.79-23.6,4.08-35.15,1.4-12.51,2.84-25.45,4.46-38.17,2.56-20.16,6.12-41.89,10.87-66.43,9-46.43,17.38-90.07,24.89-129.71,7.43-39.21,11.2-72.36,11.2-98.52,0-34.53-5.37-60.69-16-77.76-10.44-16.84-25.69-25-46.63-25-23.73,0-49.95,20.51-77.95,60.94C406.42,246.88,386.06,283,368,322.81c-18.16,40.14-32,71.28-41.14,92.57-9.25,21.52-17.64,40.16-24.94,55.4l-9.37,19.57,13.76-79.3c14-79.86,28.85-142.51,44.16-186.2,4.41-12.6,7.77-23.31,10-31.83a53.73,53.73,0,0,0,1.82-13.84c0-4.27-2.15-9.39-6.37-15.24-4.07-5.6-9.62-8.33-17-8.33-9.55,0-13.75,1.43-15.6,2.63s-5.13,4.5-9.76,13c-2.63,4.84-12.44,47.43-44.2,222.88-25.54,141-38.49,216.83-38.49,225.39,0,10.44.94,15.07,1.72,17.12,1,2.7,6.33,3.1,9.4,3.1,6,0,11.38-2.8,16.41-8.55,5.38-6.14,10.93-15.4,16.53-27.52,5.66-12.27,14.41-33.87,26-64.19s32.36-76,61.61-135.48c32.3-65.7,59.78-115.7,81.69-148.6C467,221.26,484.25,204.66,496.93,204.66Z"/><path class="cls-3" d="M352.52,349.92c20.37,23.93-21.35,126.84-21.35,126.84,23.64-49.94,131.19-289.2,173.13-268,0,0,61.58-21.87,67.26,30.68,0,0,3.3-80.2-61.58-87.74C439.23,143.52,352.52,349.92,352.52,349.92Z"/></svg>