<svg id="stem" data-name="stem" xmlns="http://www.w3.org/2000/svg" viewBox="0 0 800 800"><defs><style>.cls-1{fill:#fff;}.cls-2{fill:#4a3f07;opacity:0.5;}.cls-3{fill:#a3402c;}</style></defs><title>8</title><rect class="cls-1" width="800" height="800"/><path class="cls-2" d="M0,651.42H800v-6H0ZM0,148.58v6H800v-6Z"/><path class="cls-3" d="M612.05,651.42H533.66V558.77H266.34v92.65H188V510.5h49c22.77-29.13,40.79-67.16,53.58-113,13-46.64,19.58-101.5,19.58-163.08V192.79H260.92V148.58h328v44.21h-40V510.5h63.12Zm-72.39-6h66.39V516.5H542.93V186.79h40V154.58h-316v32.21h49.22v47.59c0,62.12-6.66,117.53-19.8,164.69s-31.86,86.39-55.55,116.29l-.9,1.14H194V645.42h66.39V552.77H539.66ZM455.12,516.5H285.9l3.37-4.74c10.23-14.4,19.57-31.64,27.76-51.24a470.57,470.57,0,0,0,21.29-64.73,576.32,576.32,0,0,0,13.53-74.89,725.25,725.25,0,0,0,4.61-83v-47h98.66Zm-157.69-6H449.12V196.85H362.46v41a730.47,730.47,0,0,1-4.65,83.73,580.93,580.93,0,0,1-13.68,75.67,475.13,475.13,0,0,1-21.56,65.57A279.48,279.48,0,0,1,297.43,510.5Z"/><path class="cls-3" d="M452.64,190.85c66.27,0,94.4,23.14,94.4,72.47V382.67L452.64,390Z"/><path class="cls-3" d="M544.31,516.5C478.81,516.5,451,493.36,451,444V324.68l93.31-7.33Z"/></svg>