<svg id="stress" data-name="stress" xmlns="http://www.w3.org/2000/svg" viewBox="0 0 800 800"><defs><style>.cls-1{fill:#fff;}.cls-2{fill:#4a3f07;opacity:0.5;}.cls-3{fill:#a3402c;}</style></defs><title>9</title><rect class="cls-1" width="800" height="800"/><path class="cls-2" d="M0,645.42v6H800v-6ZM0,148.58v6H800v-6Z"/><path class="cls-3" d="M429.28,180.92s-34.47-26.8,0-27.36S597.19,178.51,602,309s-134.37,178.9-215,138.7l-13.6-7,2.08-9.4s121,23.25,122.11-123.81C497.51,307.51,502.92,206.51,429.28,180.92Z"/><path class="cls-3" d="M388.33,651.49H203.17l-9.27-23.82,3.23-.87c17.73-4.76,30.31-9.23,37.4-13.28a29.77,29.77,0,0,0,13.81-16.17c2.65-7.31,4-19.26,4-35.52V284.11c0-23.91-1.89-42.42-5.62-55-3.59-12.07-12.1-22.21-25.29-30.13l-14.55-8.48,5.34-17.37,1.52-.47c20.18-6.26,46.85-11.92,79.27-16.8a629.1,629.1,0,0,1,92.84-7.34c71.37,0,126.28,15.15,163.2,45C586.16,223.6,605,263.9,605,313.34c0,30.36-7.36,57.42-21.86,80.43h0a144.84,144.84,0,0,1-57.56,52.76,164.18,164.18,0,0,1-75,18.07,156.86,156.86,0,0,1-78.75-21.28l-1.92-1.09L373,428.18l20.12,1.18,17.43-1c26.15-4.06,46.88-16.13,61.61-35.88,14.84-19.91,22.37-46.88,22.37-80.16,0-37.51-8.44-69.45-25.09-94.94-16.39-25.08-39.26-37.8-68-37.8-15,0-26,4.2-32.65,12.46a44.31,44.31,0,0,0-10.29,28.4v291.3c0,27.48,2.24,49.33,6.67,65s12.49,31.43,24.06,47.06l.09.12L399,638.21Zm-181.06-6H385.45l6.08-7.6-7.1-10.64c-12-16.2-20.37-32.67-25-48.94s-6.9-38.56-6.9-66.59V220.42a50.14,50.14,0,0,1,11.63-32.17c7.88-9.75,20.43-14.69,37.31-14.69,30.85,0,55.41,13.63,73,40.52,17.3,26.48,26.07,59.53,26.07,98.22,0,34.6-7.93,62.78-23.56,83.75s-37.82,34-65.64,38.24l-.28,0-17.93,1.05-15.37-.9-1,4.73a150.74,150.74,0,0,0,73.85,19.4,158.27,158.27,0,0,0,72.25-17.42A138.94,138.94,0,0,0,578,390.57h0c13.9-22,20.94-48,20.94-77.23,0-47.54-18.07-86.27-53.7-115.13-35.83-29-89.47-43.7-159.43-43.7a622.38,622.38,0,0,0-91.95,7.27c-31.31,4.72-57.16,10.15-76.87,16.14l-3,9.78,10.47,6.11c14.54,8.73,24,20,28,33.58,3.89,13.15,5.86,32.23,5.86,56.72V561.83c0,17-1.46,29.59-4.35,37.57a36,36,0,0,1-16.47,19.33c-7.08,4-19,8.41-35.6,13Z"/></svg>