<svg id="logo" data-name="logo" xmlns="http://www.w3.org/2000/svg" viewBox="0 0 400 700"><defs><style>.cls-1{fill:#b8d7c7;}.cls-2{fill:#a3402c;}.cls-3{fill:#eb945f;}.cls-4{fill:#4a3f07;}.cls-5{fill:#f3e4dc;}.cls-6{fill:#c3614a;}</style></defs><title>imArtist</title><rect class="cls-1" x="-0.39" y="115.49" width="400.39" height="400.39"/><rect class="cls-2" x="-24.92" y="287.62" width="128.07" height="412.38" rx="64.03" ry="64.03"/><rect class="cls-3" x="156.16" y="375.79" width="64.44" height="207.49" rx="32.22" ry="32.22"/><path class="cls-4" d="M167,308.41c34.06-13.51,68.66-17.84,70.83-49.2-1.63-39.47-9.74-66.5-39.47-66.5-29.2,0-37.85,35.14-47,57.31-8.65,20.55-24.33,28.66-40,28.66-20.55,0-40.56-15.14-41.64-38.39-2.7-56.78,88.68-63.8,127.06-63.8,63.26,0,132.47,27.57,132.47,134.09,0,45.95-2.7,114.62,22.71,129.76,7,4.33,8.11,16.76-21.09,16.76-58.93,0-81.1-20-89.21-47-13,28.12-37.85,47-80,47C89.17,457.1,47,426.82,47,387.89,47,338.69,128.64,323.55,167,308.41Zm-28.12,81.65c0,13,8.65,48.66,42.17,48.66,47.58,0,56.24-57.85,56.24-94.62,0-18.93.54-37.31.54-54.07-13.52,12.44-34.07,21.09-54.07,29.74C157.83,331.12,138.91,348.42,138.91,390.06Z"/><circle class="cls-2" cx="261.42" cy="176.49" r="5.69"/><circle class="cls-2" cx="329.65" cy="205.11" r="5.69"/><circle class="cls-2" cx="329.51" cy="357.25" r="5.69"/><circle class="cls-2" cx="327.38" cy="425.47" r="5.69"/><rect class="cls-2" x="196.76" y="175.36" width="64.66" height="2.26"/><rect class="cls-2" x="276.71" y="256.72" width="105.46" height="2.26" transform="translate(70.31 586.27) rotate(-89.78)"/><rect class="cls-2" x="338.53" y="418.55" width="2.26" height="28.71" transform="translate(-206.58 499.23) rotate(-58.8)"/><path class="cls-2" d="M351.35,441.3c-10.5-6.49-17.55-22.66-21-48.06a249.21,249.21,0,0,1-2-36l2.26.08c0,.67-1.86,67.4,21.89,82.09Z"/><circle class="cls-5" cx="351.94" cy="440.34" r="3.47"/><path class="cls-2" d="M351.94,444.72a4.38,4.38,0,1,1,4.38-4.38A4.38,4.38,0,0,1,351.94,444.72Zm0-7a2.57,2.57,0,1,0,2.57,2.57A2.57,2.57,0,0,0,351.94,437.77Z"/><circle class="cls-5" cx="69.7" cy="240.29" r="3.47"/><path class="cls-2" d="M69.7,244.66a4.38,4.38,0,1,1,4.38-4.37A4.37,4.37,0,0,1,69.7,244.66Zm0-6.94a2.57,2.57,0,1,0,2.57,2.57A2.57,2.57,0,0,0,69.7,237.72Z"/><circle class="cls-5" cx="111.34" cy="278.68" r="3.47"/><path class="cls-2" d="M111.34,283.05a4.38,4.38,0,1,1,4.37-4.37A4.38,4.38,0,0,1,111.34,283.05Zm0-6.95a2.58,2.58,0,1,0,2.57,2.58A2.59,2.59,0,0,0,111.34,276.1Z"/><circle class="cls-5" cx="151.35" cy="250.02" r="3.47"/><path class="cls-2" d="M151.35,254.39a4.38,4.38,0,1,1,4.37-4.37A4.38,4.38,0,0,1,151.35,254.39Zm0-6.94a2.57,2.57,0,1,0,2.57,2.57A2.57,2.57,0,0,0,151.35,247.45Z"/><circle class="cls-5" cx="167.03" cy="308.41" r="3.47"/><path class="cls-2" d="M167,312.79a4.38,4.38,0,1,1,4.37-4.38A4.38,4.38,0,0,1,167,312.79Zm0-7a2.57,2.57,0,1,0,2.57,2.57A2.58,2.58,0,0,0,167,305.84Z"/><circle class="cls-5" cx="46.99" cy="387.89" r="3.47"/><path class="cls-2" d="M47,392.27a4.38,4.38,0,1,1,4.38-4.38A4.38,4.38,0,0,1,47,392.27Zm0-6.95a2.58,2.58,0,1,0,2.58,2.57A2.58,2.58,0,0,0,47,385.32Z"/><circle class="cls-5" cx="161.62" cy="457.1" r="3.47"/><path class="cls-2" d="M161.62,461.48A4.38,4.38,0,1,1,166,457.1,4.39,4.39,0,0,1,161.62,461.48Zm0-7a2.57,2.57,0,1,0,2.57,2.57A2.57,2.57,0,0,0,161.62,454.53Z"/><circle class="cls-5" cx="241.64" cy="410.06" r="3.47"/><path class="cls-2" d="M241.64,414.44a4.38,4.38,0,1,1,4.38-4.38A4.38,4.38,0,0,1,241.64,414.44Zm0-6.95a2.57,2.57,0,1,0,2.57,2.57A2.57,2.57,0,0,0,241.64,407.49Z"/><circle class="cls-5" cx="330.85" cy="457.1" r="3.47"/><path class="cls-2" d="M330.85,461.48a4.38,4.38,0,1,1,4.38-4.38A4.38,4.38,0,0,1,330.85,461.48Zm0-7a2.57,2.57,0,1,0,2.58,2.57A2.58,2.58,0,0,0,330.85,454.53Z"/><circle class="cls-5" cx="199.24" cy="192.68" r="3.47"/><path class="cls-2" d="M199.24,197.05a4.38,4.38,0,1,1,4.38-4.37A4.37,4.37,0,0,1,199.24,197.05Zm0-6.94a2.57,2.57,0,1,0,2.58,2.57A2.58,2.58,0,0,0,199.24,190.11Z"/><circle class="cls-5" cx="237.86" cy="260.34" r="3.47"/><path class="cls-2" d="M237.86,264.72a4.38,4.38,0,1,1,4.37-4.38A4.39,4.39,0,0,1,237.86,264.72Zm0-7a2.57,2.57,0,1,0,2.57,2.57A2.57,2.57,0,0,0,237.86,257.77Z"/><circle class="cls-5" cx="196.76" cy="176.49" r="3.47"/><path class="cls-2" d="M196.76,180.86a4.38,4.38,0,1,1,4.38-4.37A4.37,4.37,0,0,1,196.76,180.86Zm0-7a2.58,2.58,0,1,0,2.58,2.58A2.58,2.58,0,0,0,196.76,173.91Z"/><circle class="cls-5" cx="329.23" cy="310.58" r="3.47"/><path class="cls-2" d="M329.23,315a4.38,4.38,0,1,1,4.38-4.37A4.37,4.37,0,0,1,329.23,315Zm0-6.95a2.58,2.58,0,1,0,2.57,2.58A2.58,2.58,0,0,0,329.23,308Z"/><rect class="cls-6" x="31.7" width="76" height="244.74" rx="38" ry="38"/></svg>